<?xml version="1.0" encoding="UTF-8"?>
<!DOCTYPE svg PUBLIC "-//W3C//DTD SVG 1.1//EN" "http://www.w3.org/Graphics/SVG/1.1/DTD/svg11.dtd">
<svg version="1.1" xmlns="http://www.w3.org/2000/svg" xmlns:xlink="http://www.w3.org/1999/xlink" x="0" y="0" width="1024" height="1024" viewBox="0, 0, 1024, 1024">
  <g id="Layer_1">
    <path d="M512,1024 C229.23,1024 0,794.77 0,512 C0,229.23 229.23,0 512,0 C794.77,0 1024,229.23 1024,512 C1024,794.77 794.77,1024 512,1024 z" fill="#000000"/>
    <path d="M793.5,766.061 C723.175,766.061 666.165,745.877 666.165,720.979" fill-opacity="0" stroke="#FFFFFF" stroke-width="30"/>
    <path d="M363.111,541.186 C363.111,541.186 291.409,530.71 267.5,508.317 C267.5,508.317 248.794,729.945 515.519,765.561 C515.519,765.561 761.182,748.237 762.132,511.711 L753.053,512.051 L612.018,625.707" fill="#0196FF"/>
    <path d="M753.053,512.051 C753.053,512.051 659.355,578.492 363.111,541.186 L452.087,692.027 L665.665,660.44" fill="#0196FF"/>
    <path d="M512.5,768.5 C371.115,768.5 256.5,653.885 256.5,512.5 C256.5,371.115 371.115,256.5 512.5,256.5 C653.885,256.5 768.5,371.115 768.5,512.5 C768.5,653.885 653.885,768.5 512.5,768.5 z" fill-opacity="0" stroke="#FFFFFF" stroke-width="30" stroke-linecap="round"/>
  </g>
</svg>
