<?xml version="1.0" encoding="UTF-8"?>
<!DOCTYPE svg PUBLIC "-//W3C//DTD SVG 1.1//EN" "http://www.w3.org/Graphics/SVG/1.1/DTD/svg11.dtd">
<svg version="1.1" xmlns="http://www.w3.org/2000/svg" xmlns:xlink="http://www.w3.org/1999/xlink" x="0" y="0" width="176" height="128" viewBox="0, 0, 176, 128">
  <g id="Layer_1">
    <path d="M164,-0 C170.627,0 176,5.373 176,12 L176,116 C176,122.627 170.627,128 164,128 L12,128 C5.373,128 0,122.627 0,116 L-0,12 C0,5.373 5.373,0 12,0 L164,-0 z" fill="#2196F3"/>
    <path d="M79.773,43.96 L96.881,61.067 L100.595,57.353 L95.873,52.631 L104.53,43.974 L117.06,56.505 L128.904,44.661 L139.79,55.546 L145.684,49.652 L176,79.967 L176,116 C176,122.628 170.627,128 164,128 L69.694,128 L24.949,83.256 L32.571,75.635 L27.487,70.551 L38.253,59.785 L43.337,64.869 L48.138,60.068 L51.733,63.663 L57.027,58.37 L51.382,52.726 L60.131,43.978 L69.943,53.79 L79.773,43.96 z" fill="#208CEB"/>
    <path d="M59.915,83.088 L49.79,83.088 L49.79,65.774 L34.84,65.774 L34.84,83.088 L24.715,83.088 L24.715,43.789 L34.84,43.789 L34.84,58.173 L49.79,58.173 L49.79,43.789 L59.915,43.789 z" fill="#FFFFFF"/>
    <path d="M104.477,68.819 Q104.477,76.09 100.061,79.963 Q95.645,83.836 87.051,83.836 Q78.456,83.836 74.054,79.963 Q69.651,76.09 69.651,68.845 L69.651,43.789 L79.796,43.789 L79.796,68.265 Q79.796,72.349 81.505,74.351 Q83.213,76.354 87.051,76.354 Q90.836,76.354 92.583,74.431 Q94.331,72.507 94.331,68.265 L94.331,43.789 L104.477,43.789 z" fill="#FFFFFF"/>
    <path d="M150.911,63.478 Q150.911,68.968 148.408,73.309 Q145.904,77.651 142.084,79.973 Q139.212,81.715 135.787,82.402 Q132.361,83.088 127.671,83.088 L113.838,83.088 L113.838,43.789 L128.066,43.789 Q132.862,43.789 136.34,44.594 Q139.818,45.399 142.189,46.877 Q146.247,49.358 148.579,53.568 Q150.911,57.777 150.911,63.478 z M140.45,63.399 Q140.45,59.519 139.041,56.761 Q137.631,54.003 134.575,52.446 Q133.02,51.681 131.4,51.404 Q129.779,51.127 126.512,51.127 L123.956,51.127 L123.956,75.724 L126.512,75.724 Q130.122,75.724 131.808,75.394 Q133.494,75.064 135.102,74.193 Q137.868,72.61 139.159,69.958 Q140.45,67.305 140.45,63.399 z" fill="#FFFFFF"/>
  </g>
</svg>
