<?xml version="1.0" encoding="UTF-8"?>
<!DOCTYPE svg PUBLIC "-//W3C//DTD SVG 1.1//EN" "http://www.w3.org/Graphics/SVG/1.1/DTD/svg11.dtd">
<svg version="1.1" xmlns="http://www.w3.org/2000/svg" xmlns:xlink="http://www.w3.org/1999/xlink" x="0" y="0" width="176" height="128" viewBox="0, 0, 176, 128">
  <g id="Layer_1">
    <path d="M164,0 C170.627,0 176,5.373 176,12 L176,116 C176,122.627 170.627,128 164,128 L12,128 C5.373,128 0,122.627 0,116 L0,12 C0,5.373 5.373,0 12,0 L164,0 z" fill="#B71B1B"/>
    <path d="M86.05,40.054 L86.842,40.846 L87.376,40.313 L89.869,42.806 L91.698,40.977 L108.493,57.772 L117.831,48.434 L132.848,63.451 L149.144,47.155 L152.199,50.209 L157.969,44.439 L176,62.471 L176,116 C176,122.627 170.627,128 164,128 L95.88,128 L67.073,99.192 L67.073,99.192 L30.967,63.086 L31.127,62.927 L25.501,57.301 L26.194,56.607 L22.778,53.191 L23.755,52.214 L20.131,48.59 L21.41,47.311 L23.808,49.71 L25.07,48.448 L28.8,52.179 L27.859,53.12 L28.77,54.032 L30.706,52.095 L32.104,53.493 L32.619,52.978 L35.479,55.838 L34.964,56.353 L36.332,57.721 L37.22,56.833 L55.117,74.73 L69.975,59.872 L62.383,52.281 L66.201,48.463 L82.096,64.357 L79.782,66.671 L89.688,76.577 L102.187,64.078 L88.841,50.732 L85.43,54.143 L77.771,46.484 L81.67,42.585 L82.595,43.509 L83.475,42.629 L82.793,41.947 L84.421,40.318 L85.103,41.001 L86.05,40.054 z" fill="#AE1E22"/>
    <path d="M87.881,39.61 C88.563,39.648 89.227,39.694 89.897,39.805 C90.975,39.878 92.411,41.76 92.411,41.76 C93.705,44.729 92.124,46.539 92.124,46.539 C92.34,53.417 96.651,55.878 96.651,55.878 L97.513,56.964 C108.793,56.82 108.757,50.035 108.757,50.035 C109.739,46.249 116.136,47.014 116.136,47.014 L153.46,46.774 C156.301,46.338 157.012,45.186 157.012,45.186 C157.753,44.19 158,44.471 158,44.471 C157.598,50.26 150.402,51.007 150.402,51.007 L144.255,52.003 C149.444,52.003 152.533,51.536 152.533,51.536 C154.695,50.913 153.707,52.47 153.707,52.47 C152.626,55.24 142.927,57.356 142.927,57.356 L149.877,56.609 C151.668,55.862 150.34,57.263 150.34,57.263 C148.116,60.437 139.282,62.959 139.282,62.958 L145.12,61.745 C146.325,61.184 145.831,62.243 145.831,62.243 C142.495,66.694 134.345,67.057 134.345,67.057 L139.154,67.564 C137.205,70.568 130.096,71.434 130.096,71.434 L132.79,71.723 C130.669,74.785 125.739,74.496 125.739,74.496 C128.491,75.247 125.911,75.478 125.911,75.478 L119.433,76.46 C122.127,76.634 120.407,77.096 120.407,77.096 C118.917,77.731 112.112,77.099 112.112,77.099 C112.65,77.801 111.478,77.546 111.478,77.546 L109.26,78.216 C109.862,79.366 108.499,79.015 108.499,79.014 L106.281,79.078 C106.661,80.132 105.521,79.589 105.521,79.589 L103.113,79.302 L103.841,79.877 C103.968,80.803 103.018,80.547 103.017,80.547 L100.958,80.164 C102.162,80.579 101.876,80.923 101.876,80.923 C96.753,81.918 96.975,74.035 96.975,74.035 C96.765,72.23 95.587,73.261 95.587,73.261 C97.328,78.526 95.869,83.458 95.869,83.458 C95.869,84.691 96.952,87.205 96.952,87.205 L96.528,87.727 C98.693,91.995 95.681,95.6 95.681,95.6 C96.434,92.754 96.011,89.577 96.011,89.576 L95.21,89.861 C94.975,94.177 94.316,95.458 94.316,95.458 C93.563,94.746 93.516,90.478 93.516,90.478 L92.104,90.667 C91.539,94.367 92.951,95.505 92.951,95.505 C88.339,92.043 91.68,88.201 91.68,88.201 L91.445,87.869 C89.845,88.249 90.974,86.968 90.974,86.968 C90.41,86.209 91.069,84.217 91.069,84.217 C89.515,83.411 88.621,79.19 88.621,79.19 C88.339,77.577 88.903,76.629 88.903,76.628 L88.009,75.822 L87.162,76.581 C87.68,76.961 87.397,79.095 87.397,79.095 C87.303,79.996 85.844,81.941 85.844,81.94 C86.032,82.178 85.279,83.553 85.279,83.553 L85.938,83.648 C86.268,87.253 87.021,87.063 87.021,87.063 C87.209,87.49 86.88,87.822 86.88,87.822 L86.456,88.296 C87.727,93.134 84.667,95.553 84.667,95.552 C85.75,93.086 85.373,90.715 85.373,90.715 L84.056,90.667 L83.255,95.363 L82.785,90.193 L81.279,89.861 C80.29,91.521 80.855,95.458 80.855,95.458 C78.831,93.893 79.867,87.632 79.867,87.632 C78.831,87.774 78.987,87.065 78.987,87.065 C79.122,86.658 80.223,86.114 80.223,86.114 L80.291,85.604 C81.082,85.206 81.42,83.272 81.42,83.272 C78.429,80.599 80.291,75.025 80.348,74.797 C80.404,74.569 80.856,72.465 80.235,73.261 C79.614,74.058 78.908,76.833 78.908,76.833 C77.921,80.197 75.597,81.043 75.597,81.042 C73.147,81.536 74.391,80.435 74.391,80.435 L73.675,80.245 C71.602,81.498 72.393,79.599 72.393,79.599 L72.129,78.878 C72.129,78.878 71.639,78.954 70.358,79.485 C69.076,80.017 69.717,78.992 69.717,78.992 L69.265,78.156 L67.795,78.878 C66.249,79.371 66.852,78.194 66.852,78.194 L66.513,77.016 L64.629,77.548 C63.234,77.966 63.875,77.055 63.875,77.054 L63.536,75.991 C61.99,76.713 59.88,76.675 59.88,76.675 C58.9,76.637 59.804,76.067 59.804,76.067 L59.399,75.436 C59.354,75.467 59.317,75.517 59.264,75.53 C57.905,75.863 56.096,75.813 54.679,75.844 C49.503,75.938 49.038,75.064 49.038,75.064 L49.999,73.97 C48.759,74.533 47.457,74.283 47.457,74.283 C45.505,74.064 42.467,71.253 42.467,71.253 L46.218,70.629 C40.267,71.16 37.654,68.341 37.004,67.858 C36.354,67.374 37.097,67.39 37.097,67.39 L41.452,66.294 C34.108,67.112 31.019,63.142 30.133,62.198 C29.247,61.254 30.665,61.56 30.665,61.56 L34.777,61.971 C31.16,61.59 28.036,59.844 25.501,57.301 C24.565,56.382 25.111,56.302 25.111,56.302 L32.99,56.467 C24.495,56.385 22.102,52.38 22.102,52.38 C21.45,51.158 22.382,51.158 22.382,51.158 C27.603,52.38 26.671,51.252 26.671,51.252 C18.56,50.595 17.993,44.431 18,44.394 C18.162,43.572 18.504,44.563 18.504,44.562 C18.935,46.085 21.562,46.631 21.562,46.631 L38.363,46.866 L63.506,47.179 C66.92,47.57 67.463,50.893 67.463,50.893 C68.899,56.289 77.396,56.993 77.396,56.993 C77.978,57.11 79.491,57.032 79.491,57.032 C81.47,55.976 83.943,50.314 83.943,50.314 C84.669,49.191 84.11,46.737 84.11,46.737 C82.407,44.711 77.772,46.484 77.772,46.484 C77.381,43.839 79,42.882 79,42.882 C80.285,42.826 80.844,42.122 80.844,42.122 C81.131,41.833 82.209,41.543 82.209,41.543 C83.45,39.618 85.869,39.723 87.881,39.61 z M85.784,41.096 C85.713,41.099 83.409,41.102 83.473,41.667 C83.821,42.634 86.063,42.556 86.063,42.556 C86.565,41.706 87.841,41.551 87.841,41.551 L87.995,41.165 C86.694,41.095 87.431,41.124 85.784,41.096 z" fill="#FFD600"/>
  </g>
</svg>
