<?xml version="1.0" encoding="UTF-8"?>
<!DOCTYPE svg PUBLIC "-//W3C//DTD SVG 1.1//EN" "http://www.w3.org/Graphics/SVG/1.1/DTD/svg11.dtd">
<svg version="1.1" xmlns="http://www.w3.org/2000/svg" xmlns:xlink="http://www.w3.org/1999/xlink" x="0" y="0" width="176" height="128" viewBox="0, 0, 176, 128">
  <g id="Layer_1">
    <path d="M12,0 L164,0 C170.627,0 176,5.373 176,12 L176,116 C176,122.627 170.627,128 164,128 L12,128 C5.373,128 0,122.627 0,116 L0,12 C0,5.373 5.373,0 12,0 z" fill="#FF8F00"/>
    <path d="M118.104,34 L176,91.896 L176,116 C176,122.627 170.627,128 164,128 L91.896,128 L58,94.104 L118.104,34 z" fill="#F28923"/>
    <path d="M57.948,94.052 C41.351,77.455 41.351,50.545 57.948,33.948 C74.545,17.351 101.455,17.351 118.052,33.948 C134.649,50.545 134.649,77.455 118.052,94.052 C101.455,110.649 74.545,110.649 57.948,94.052 z" fill="#000000"/>
    <path d="M77.6,69 C74.839,69 72.6,66.761 72.6,64 C72.6,61.239 74.839,59 77.6,59 C80.361,59 82.6,61.239 82.6,64 C82.6,66.761 80.361,69 77.6,69 z" fill="#FFFC00"/>
    <path d="M98.4,69 C95.639,69 93.4,66.761 93.4,64 C93.4,61.239 95.639,59 98.4,59 C101.161,59 103.4,61.239 103.4,64 C103.4,66.761 101.161,69 98.4,69 z" fill="#FFFC00"/>
  </g>
</svg>
