<?xml version="1.0" encoding="UTF-8"?>
<!DOCTYPE svg PUBLIC "-//W3C//DTD SVG 1.1//EN" "http://www.w3.org/Graphics/SVG/1.1/DTD/svg11.dtd">
<svg version="1.1" xmlns="http://www.w3.org/2000/svg" xmlns:xlink="http://www.w3.org/1999/xlink" x="0" y="0" width="176" height="128" viewBox="0, 0, 176, 128">
  <g id="Layer_1">
    <path d="M12,0 L164,0 C170.627,0 176,5.373 176,12 L176,116 C176,122.627 170.627,128 164,128 L12,128 C5.373,128 0,122.627 0,116 L0,12 C0,5.373 5.373,0 12,0 z" fill="#0277BD"/>
    <path d="M42.003,18.284 L49.984,26.265 L53.449,22.799 L105.391,74.741 L112.499,67.632 L118.829,73.963 L127.906,64.885 L132.857,69.836 L139.512,63.182 L176,99.67 L176,116 C176,122.627 170.627,128 164,128 L77.262,128 L44.593,95.331 L58.131,81.793 L18.98,42.641 L38.492,23.129 L45.806,30.443 L47.206,29.043 L39.225,21.062 L42.003,18.284 z" fill="#1273B4"/>
    <path d="M154.284,10 L176,31.716 L176,88.284 L126,38.284 L133.003,34.722 L129.703,31.422 L141.929,19.195 L137.715,10 L144.845,17.129 L144.365,17.609 L145.258,18.501 L146.374,17.385 L146,10 L151.114,15.114 L149.437,16.792 L150.683,18.039 L154.284,10 z" fill="#1273B4"/>
    <path d="M132.704,28.42 L126,21.716" fill="#1273B4"/>
    <g>
      <path d="M146,50 L142.173,39.239 L131.858,44.142 L136.761,33.827 L126,30 L136.761,26.173 L131.858,15.858 L142.173,20.761 L146,10 L149.827,20.761 L160.142,15.858 L155.239,26.173 L166,30 L155.239,33.827 L160.142,44.142 L149.827,39.239 z" fill="#FFD54F"/>
      <path d="M137.716,50 L138.346,37.654 L126,38.284 L135.176,30 L126,21.716 L138.346,22.346 L137.716,10 L146,19.176 L154.284,10 L153.654,22.346 L166,21.716 L156.824,30 L166,38.284 L153.654,37.654 L154.284,50 L146,40.824 z" fill="#FFC107"/>
      <path d="M146,37.5 C141.858,37.5 138.5,34.142 138.5,30 C138.5,25.858 141.858,22.5 146,22.5 C150.142,22.5 153.5,25.858 153.5,30 C153.5,34.142 150.142,37.5 146,37.5 z" fill="#FF8F00"/>
    </g>
    <path d="M99.416,67.905 C108.838,65.362 118.366,62.854 128.116,61.902 C131.135,61.608 135.748,61.187 138.562,62.535 C139.262,62.871 139.273,62.96 139.803,63.473 L139.804,63.474 L140,63.768 C139.505,71.924 103.41,80.94 103.41,80.94 C99.721,85.191 75.965,103.661 75.965,103.661 L67.128,105.6 L83.437,86.463 C68.053,91.06 54.21,89.746 54.21,89.746 L48.604,94.634 L44.593,95.331 L50.139,88.419 L36,71.355 L41.161,69.726 C41.161,69.726 56.27,79.787 56.147,79.797 C56.025,79.808 83.742,72.336 83.742,72.336 L72.327,66.26 L76.864,64.564 L99.389,67.913 L99.416,67.905 z" fill="#FFFFFF"/>
    <path d="M34.285,15 C38.489,15.039 42.111,17.363 44.108,21.174 C45.209,20.572 46.455,20.342 47.686,20.31 C52.165,20.31 55.796,24.074 55.796,28.717 L55.789,28.999 C59.283,30.048 61.508,33.1 61.6,36.858 C61.6,41.355 58.084,45 53.747,45 L53.747,45 L53.747,45 L24.501,45 L24.501,45 L24.496,45 C20.135,45 16.6,41.286 16.6,36.704 C16.616,33.563 18.335,30.61 21.073,29.225 C21.778,28.869 22.579,28.579 23.363,28.495 C23.214,27.844 23.204,27.17 23.188,26.504 C23.188,20.151 28.156,15 34.285,15 z" fill="#FFFFFF"/>
  </g>
</svg>
